<svg width="478" height="520" viewBox="0 0 478 520" fill="none" xmlns="http://www.w3.org/2000/svg">
<rect width="478" height="520" fill="#E5E5E5"/>
<g clip-path="url(#clip0)">
<rect width="1600" height="3429" transform="translate(-880 -2019)" fill="white"/>
<path d="M-149.566 355.491C77.7532 -153.925 441.756 -174.114 720 -183V620.447V1122.71C540.795 1406.02 60.316 1271.96 -59.1542 959.611C-178.625 647.258 -504.327 667.515 -880 743.067V353.576C-828.756 497.272 -336.052 773.403 -149.566 355.491Z" fill="url(#paint0_linear)"/>
<rect width="478" height="520" rx="20" fill="black" fill-opacity="0.2"/>
<path opacity="0.3" d="M100.344 216.962C100.344 214.489 101.722 213.252 104.478 213.252C107.233 213.252 108.611 214.489 108.611 216.962C108.611 218.141 108.263 219.062 107.565 219.727C106.885 220.374 105.855 220.698 104.478 220.698C101.722 220.698 100.344 219.453 100.344 216.962ZM108.263 252H100.667V224.159H108.263V252ZM123.852 252H116.256V213.252H123.852V252ZM139.44 252H131.845V213.252H139.44V252ZM167.157 252L166.136 248.439H165.737C164.924 249.734 163.77 250.738 162.276 251.452C160.782 252.149 159.08 252.498 157.171 252.498C153.9 252.498 151.435 251.626 149.775 249.883C148.115 248.124 147.285 245.6 147.285 242.313V224.159H154.88V240.42C154.88 242.429 155.237 243.94 155.951 244.953C156.665 245.949 157.802 246.447 159.362 246.447C161.487 246.447 163.023 245.741 163.969 244.33C164.916 242.902 165.389 240.545 165.389 237.258V224.159H172.984V252H167.157ZM200.376 243.732C200.376 246.588 199.38 248.763 197.388 250.257C195.413 251.751 192.449 252.498 188.498 252.498C186.473 252.498 184.746 252.357 183.318 252.075C181.891 251.809 180.554 251.411 179.309 250.879V244.604C180.72 245.268 182.306 245.824 184.065 246.272C185.842 246.721 187.402 246.945 188.747 246.945C191.503 246.945 192.881 246.148 192.881 244.554C192.881 243.957 192.698 243.475 192.333 243.11C191.968 242.728 191.337 242.305 190.44 241.84C189.544 241.358 188.349 240.802 186.854 240.171C184.713 239.275 183.136 238.445 182.123 237.681C181.127 236.917 180.396 236.046 179.932 235.066C179.483 234.07 179.259 232.85 179.259 231.406C179.259 228.932 180.214 227.023 182.123 225.678C184.049 224.317 186.771 223.636 190.291 223.636C193.645 223.636 196.907 224.367 200.078 225.828L197.787 231.306C196.392 230.708 195.089 230.219 193.877 229.837C192.665 229.455 191.428 229.264 190.167 229.264C187.925 229.264 186.805 229.87 186.805 231.082C186.805 231.763 187.162 232.352 187.875 232.85C188.606 233.348 190.191 234.087 192.632 235.066C194.807 235.946 196.4 236.768 197.413 237.532C198.426 238.295 199.173 239.175 199.654 240.171C200.136 241.167 200.376 242.354 200.376 243.732ZM218.032 246.447C219.36 246.447 220.954 246.156 222.813 245.575V251.228C220.921 252.075 218.597 252.498 215.841 252.498C212.803 252.498 210.586 251.734 209.192 250.207C207.814 248.663 207.125 246.355 207.125 243.284V229.862H203.489V226.649L207.673 224.109L209.864 218.232H214.72V224.159H222.515V229.862H214.72V243.284C214.72 244.363 215.019 245.16 215.617 245.675C216.231 246.189 217.036 246.447 218.032 246.447ZM244.005 223.636C245.035 223.636 245.89 223.711 246.57 223.86L245.998 230.982C245.383 230.816 244.636 230.733 243.756 230.733C241.333 230.733 239.44 231.356 238.079 232.601C236.734 233.846 236.062 235.589 236.062 237.831V252H228.466V224.159H234.219L235.339 228.841H235.713C236.576 227.28 237.738 226.027 239.199 225.081C240.677 224.118 242.279 223.636 244.005 223.636ZM269.306 252L267.837 248.215H267.638C266.359 249.825 265.04 250.946 263.678 251.577C262.333 252.191 260.574 252.498 258.399 252.498C255.726 252.498 253.618 251.734 252.074 250.207C250.546 248.68 249.783 246.505 249.783 243.683C249.783 240.728 250.812 238.553 252.871 237.158C254.946 235.747 258.067 234.967 262.234 234.817L267.065 234.668V233.448C267.065 230.625 265.621 229.214 262.732 229.214C260.507 229.214 257.893 229.887 254.888 231.231L252.373 226.102C255.577 224.425 259.129 223.586 263.031 223.586C266.766 223.586 269.63 224.4 271.622 226.027C273.614 227.654 274.61 230.127 274.61 233.448V252H269.306ZM267.065 239.101L264.126 239.2C261.918 239.267 260.275 239.665 259.196 240.396C258.117 241.126 257.577 242.238 257.577 243.732C257.577 245.874 258.806 246.945 261.263 246.945C263.022 246.945 264.425 246.438 265.471 245.426C266.534 244.413 267.065 243.068 267.065 241.392V239.101ZM294.184 246.447C295.512 246.447 297.105 246.156 298.965 245.575V251.228C297.072 252.075 294.748 252.498 291.992 252.498C288.954 252.498 286.738 251.734 285.343 250.207C283.965 248.663 283.276 246.355 283.276 243.284V229.862H279.641V226.649L283.824 224.109L286.016 218.232H290.872V224.159H298.666V229.862H290.872V243.284C290.872 244.363 291.17 245.16 291.768 245.675C292.382 246.189 293.188 246.447 294.184 246.447ZM304.294 216.962C304.294 214.489 305.672 213.252 308.428 213.252C311.184 213.252 312.562 214.489 312.562 216.962C312.562 218.141 312.213 219.062 311.516 219.727C310.835 220.374 309.806 220.698 308.428 220.698C305.672 220.698 304.294 219.453 304.294 216.962ZM312.213 252H304.618V224.159H312.213V252ZM326.258 238.03C326.258 240.786 326.706 242.869 327.603 244.28C328.516 245.691 329.993 246.397 332.035 246.397C334.061 246.397 335.513 245.7 336.393 244.305C337.29 242.894 337.738 240.802 337.738 238.03C337.738 235.274 337.29 233.207 336.393 231.829C335.497 230.451 334.027 229.762 331.985 229.762C329.96 229.762 328.499 230.451 327.603 231.829C326.706 233.19 326.258 235.257 326.258 238.03ZM345.507 238.03C345.507 242.562 344.312 246.106 341.921 248.663C339.531 251.22 336.202 252.498 331.936 252.498C329.263 252.498 326.905 251.917 324.863 250.755C322.821 249.576 321.252 247.891 320.157 245.7C319.061 243.508 318.513 240.952 318.513 238.03C318.513 233.481 319.7 229.945 322.074 227.421C324.448 224.898 327.785 223.636 332.085 223.636C334.758 223.636 337.115 224.217 339.157 225.379C341.199 226.542 342.768 228.21 343.864 230.385C344.959 232.56 345.507 235.108 345.507 238.03ZM377.482 252H369.887V235.739C369.887 233.73 369.53 232.228 368.816 231.231C368.102 230.219 366.965 229.712 365.404 229.712C363.279 229.712 361.744 230.426 360.797 231.854C359.851 233.265 359.378 235.614 359.378 238.901V252H351.783V224.159H357.585L358.606 227.72H359.029C359.876 226.375 361.038 225.363 362.516 224.682C364.01 223.985 365.703 223.636 367.596 223.636C370.833 223.636 373.29 224.516 374.967 226.276C376.644 228.019 377.482 230.542 377.482 233.846V252ZM111.749 308.498C108.479 308.498 105.905 307.228 104.029 304.688C102.17 302.148 101.24 298.628 101.24 294.129C101.24 289.564 102.187 286.011 104.079 283.471C105.988 280.915 108.611 279.636 111.948 279.636C115.451 279.636 118.124 280.998 119.967 283.72H120.216C119.834 281.645 119.643 279.794 119.643 278.167V269.252H127.263V308H121.436L119.967 304.389H119.643C117.917 307.128 115.285 308.498 111.749 308.498ZM114.414 302.447C116.356 302.447 117.775 301.882 118.672 300.753C119.585 299.625 120.083 297.707 120.166 295.001V294.179C120.166 291.191 119.701 289.049 118.771 287.754C117.858 286.459 116.364 285.812 114.289 285.812C112.596 285.812 111.276 286.534 110.33 287.979C109.4 289.406 108.935 291.49 108.935 294.229C108.935 296.968 109.408 299.027 110.354 300.405C111.301 301.766 112.654 302.447 114.414 302.447ZM154.93 308L153.909 304.439H153.51C152.697 305.734 151.543 306.738 150.049 307.452C148.555 308.149 146.853 308.498 144.944 308.498C141.673 308.498 139.208 307.626 137.548 305.883C135.888 304.124 135.058 301.6 135.058 298.313V280.159H142.653V296.42C142.653 298.429 143.01 299.94 143.724 300.953C144.438 301.949 145.575 302.447 147.135 302.447C149.26 302.447 150.796 301.741 151.742 300.33C152.688 298.902 153.162 296.545 153.162 293.258V280.159H160.757V308H154.93ZM180.255 285.04C178.645 285.04 177.383 285.555 176.47 286.584C175.557 287.597 175.034 289.041 174.901 290.917H185.56C185.526 289.041 185.037 287.597 184.09 286.584C183.144 285.555 181.866 285.04 180.255 285.04ZM181.326 308.498C176.844 308.498 173.341 307.261 170.817 304.788C168.294 302.314 167.032 298.811 167.032 294.279C167.032 289.614 168.194 286.011 170.519 283.471C172.859 280.915 176.088 279.636 180.206 279.636C184.14 279.636 187.203 280.757 189.395 282.998C191.586 285.239 192.682 288.335 192.682 292.287V295.972H174.727C174.81 298.13 175.449 299.815 176.645 301.027C177.84 302.239 179.517 302.845 181.675 302.845C183.352 302.845 184.937 302.671 186.431 302.322C187.925 301.974 189.486 301.417 191.113 300.654V306.531C189.785 307.195 188.365 307.685 186.854 308C185.344 308.332 183.501 308.498 181.326 308.498ZM223.834 302.447C225.163 302.447 226.756 302.156 228.616 301.575V307.228C226.723 308.075 224.399 308.498 221.643 308.498C218.605 308.498 216.389 307.734 214.994 306.207C213.616 304.663 212.927 302.355 212.927 299.284V285.862H209.292V282.649L213.475 280.109L215.667 274.232H220.522V280.159H228.317V285.862H220.522V299.284C220.522 300.363 220.821 301.16 221.419 301.675C222.033 302.189 222.838 302.447 223.834 302.447ZM240.32 294.03C240.32 296.786 240.768 298.869 241.665 300.28C242.578 301.691 244.055 302.397 246.097 302.397C248.123 302.397 249.575 301.7 250.455 300.305C251.352 298.894 251.8 296.802 251.8 294.03C251.8 291.274 251.352 289.207 250.455 287.829C249.559 286.451 248.089 285.762 246.047 285.762C244.022 285.762 242.561 286.451 241.665 287.829C240.768 289.19 240.32 291.257 240.32 294.03ZM259.569 294.03C259.569 298.562 258.374 302.106 255.983 304.663C253.593 307.22 250.264 308.498 245.998 308.498C243.325 308.498 240.967 307.917 238.925 306.755C236.883 305.576 235.314 303.891 234.219 301.7C233.123 299.508 232.575 296.952 232.575 294.03C232.575 289.481 233.762 285.945 236.136 283.421C238.51 280.898 241.847 279.636 246.147 279.636C248.82 279.636 251.177 280.217 253.219 281.379C255.261 282.542 256.83 284.21 257.926 286.385C259.021 288.56 259.569 291.108 259.569 294.03ZM290.822 302.447C292.15 302.447 293.744 302.156 295.603 301.575V307.228C293.71 308.075 291.386 308.498 288.63 308.498C285.592 308.498 283.376 307.734 281.981 306.207C280.604 304.663 279.915 302.355 279.915 299.284V285.862H276.279V282.649L280.462 280.109L282.654 274.232H287.51V280.159H295.304V285.862H287.51V299.284C287.51 300.363 287.809 301.16 288.406 301.675C289.021 302.189 289.826 302.447 290.822 302.447ZM312.786 285.04C311.175 285.04 309.914 285.555 309 286.584C308.087 287.597 307.564 289.041 307.432 290.917H318.09C318.057 289.041 317.567 287.597 316.621 286.584C315.674 285.555 314.396 285.04 312.786 285.04ZM313.856 308.498C309.374 308.498 305.871 307.261 303.348 304.788C300.824 302.314 299.562 298.811 299.562 294.279C299.562 289.614 300.725 286.011 303.049 283.471C305.39 280.915 308.619 279.636 312.736 279.636C316.67 279.636 319.733 280.757 321.925 282.998C324.116 285.239 325.212 288.335 325.212 292.287V295.972H307.257C307.34 298.13 307.979 299.815 309.175 301.027C310.37 302.239 312.047 302.845 314.205 302.845C315.882 302.845 317.467 302.671 318.961 302.322C320.456 301.974 322.016 301.417 323.643 300.654V306.531C322.315 307.195 320.896 307.685 319.385 308C317.874 308.332 316.031 308.498 313.856 308.498ZM337.09 293.781L328.125 280.159H336.742L342.146 289.024L347.599 280.159H356.215L347.151 293.781L356.639 308H347.998L342.146 298.462L336.269 308H327.652L337.09 293.781ZM372.601 302.447C373.929 302.447 375.523 302.156 377.382 301.575V307.228C375.49 308.075 373.166 308.498 370.41 308.498C367.372 308.498 365.155 307.734 363.761 306.207C362.383 304.663 361.694 302.355 361.694 299.284V285.862H358.058V282.649L362.242 280.109L364.433 274.232H369.289V280.159H377.083V285.862H369.289V299.284C369.289 300.363 369.588 301.16 370.186 301.675C370.8 302.189 371.605 302.447 372.601 302.447Z" fill="black"/>
</g>
<defs>
<linearGradient id="paint0_linear" x1="-125.264" y1="-183" x2="-125.264" y2="1278" gradientUnits="userSpaceOnUse">
<stop stop-color="#F4F4F4"/>
<stop offset="1" stop-color="#FBFBFB" stop-opacity="0"/>
</linearGradient>
<clipPath id="clip0">
<rect width="1600" height="3429" fill="white" transform="translate(-880 -2019)"/>
</clipPath>
</defs>
</svg>
