<svg width="218" height="68" viewBox="0 0 218 68" fill="none" xmlns="http://www.w3.org/2000/svg">
    <rect y="0.792969" width="218" height="67" rx="10" fill="white"/>
    <path opacity="0.8" d="M47.7412 24.4185H45.8174L42.7119 19.0181H42.668C42.7298 19.9718 42.7607 20.6522 42.7607 21.0591V24.4185H41.4082V17.2798H43.3174L46.418 22.6265H46.4521C46.4033 21.6987 46.3789 21.0428 46.3789 20.6587V17.2798H47.7412V24.4185ZM53.6543 24.4185H49.543V17.2798H53.6543V18.52H51.0566V20.0874H53.4736V21.3276H51.0566V23.1685H53.6543V24.4185ZM62.1016 24.4185H60.3779L59.4111 20.6685C59.3753 20.535 59.3135 20.2599 59.2256 19.8433C59.141 19.4233 59.0921 19.1418 59.0791 18.9985C59.0596 19.1743 59.0107 19.4575 58.9326 19.8481C58.8545 20.2355 58.7943 20.5122 58.752 20.6782L57.79 24.4185H56.0713L54.25 17.2798H55.7393L56.6523 21.1763C56.8118 21.8957 56.9274 22.519 56.999 23.0464C57.0186 22.8608 57.0625 22.5744 57.1309 22.187C57.2025 21.7964 57.2692 21.4937 57.3311 21.2788L58.3711 17.2798H59.8018L60.8418 21.2788C60.8874 21.4578 60.9443 21.7313 61.0127 22.0991C61.0811 22.467 61.1331 22.7827 61.1689 23.0464C61.2015 22.7925 61.2536 22.4767 61.3252 22.0991C61.3968 21.7183 61.4619 21.4106 61.5205 21.1763L62.4287 17.2798H63.918L62.1016 24.4185ZM70.4463 18.437C69.8766 18.437 69.4355 18.6519 69.123 19.0815C68.8105 19.508 68.6543 20.1037 68.6543 20.8687C68.6543 22.4604 69.2516 23.2563 70.4463 23.2563C70.9476 23.2563 71.5547 23.131 72.2676 22.8804V24.1499C71.6816 24.394 71.0273 24.5161 70.3047 24.5161C69.2663 24.5161 68.472 24.202 67.9219 23.5737C67.3717 22.9422 67.0967 22.0373 67.0967 20.8589C67.0967 20.1167 67.2318 19.4673 67.502 18.9106C67.7721 18.3507 68.1595 17.9227 68.6641 17.6265C69.1719 17.327 69.766 17.1772 70.4463 17.1772C71.1396 17.1772 71.8363 17.3449 72.5361 17.6802L72.0479 18.9106C71.7809 18.7837 71.5124 18.673 71.2422 18.5786C70.972 18.4842 70.7067 18.437 70.4463 18.437ZM79.6016 17.2798V21.8989C79.6016 22.4263 79.4827 22.8885 79.2451 23.2856C79.0107 23.6828 78.6706 23.9871 78.2246 24.1987C77.7786 24.4103 77.2513 24.5161 76.6426 24.5161C75.7246 24.5161 75.0117 24.2817 74.5039 23.813C73.9961 23.341 73.7422 22.6965 73.7422 21.8794V17.2798H75.251V21.6499C75.251 22.2 75.3617 22.6037 75.583 22.8608C75.8044 23.118 76.1706 23.2466 76.6816 23.2466C77.1764 23.2466 77.5345 23.118 77.7559 22.8608C77.9805 22.6004 78.0928 22.1935 78.0928 21.6401V17.2798H79.6016ZM85.5635 22.436C85.5635 23.0806 85.3307 23.5884 84.8652 23.9595C84.403 24.3306 83.7585 24.5161 82.9316 24.5161C82.1699 24.5161 81.4961 24.3729 80.9102 24.0864V22.6802C81.3919 22.895 81.7988 23.0464 82.1309 23.1343C82.4661 23.2222 82.7721 23.2661 83.0488 23.2661C83.3809 23.2661 83.6348 23.2026 83.8105 23.0757C83.9896 22.9487 84.0791 22.7599 84.0791 22.5093C84.0791 22.3693 84.04 22.2456 83.9619 22.1382C83.8838 22.0275 83.7682 21.9217 83.6152 21.8208C83.4655 21.7199 83.1579 21.5588 82.6924 21.3374C82.2562 21.1323 81.929 20.9354 81.7109 20.7466C81.4928 20.5578 81.3187 20.3381 81.1885 20.0874C81.0583 19.8368 80.9932 19.5438 80.9932 19.2085C80.9932 18.577 81.2064 18.0806 81.6328 17.7192C82.0625 17.3579 82.6549 17.1772 83.4102 17.1772C83.7812 17.1772 84.1344 17.2212 84.4697 17.3091C84.8083 17.397 85.1615 17.5207 85.5293 17.6802L85.041 18.8569C84.6602 18.7007 84.3444 18.5916 84.0938 18.5298C83.8464 18.4679 83.6022 18.437 83.3613 18.437C83.0749 18.437 82.8551 18.5037 82.7021 18.6372C82.5492 18.7707 82.4727 18.9448 82.4727 19.1597C82.4727 19.2931 82.5036 19.4103 82.5654 19.5112C82.6273 19.6089 82.7249 19.7049 82.8584 19.7993C82.9951 19.8905 83.3158 20.0565 83.8203 20.2974C84.4876 20.6164 84.945 20.937 85.1924 21.2593C85.4398 21.5783 85.5635 21.9705 85.5635 22.436ZM89.6113 24.4185H88.0977V18.5396H86.1592V17.2798H91.5498V18.5396H89.6113V24.4185ZM99.1279 20.8394C99.1279 22.021 98.835 22.9292 98.249 23.564C97.6631 24.1987 96.8232 24.5161 95.7295 24.5161C94.6357 24.5161 93.7959 24.1987 93.21 23.564C92.624 22.9292 92.3311 22.0177 92.3311 20.8296C92.3311 19.6414 92.624 18.7349 93.21 18.1099C93.7992 17.4816 94.6423 17.1675 95.7393 17.1675C96.8363 17.1675 97.6745 17.4832 98.2539 18.1147C98.8366 18.7463 99.1279 19.6545 99.1279 20.8394ZM93.918 20.8394C93.918 21.6369 94.0693 22.2375 94.3721 22.6411C94.6748 23.0448 95.1273 23.2466 95.7295 23.2466C96.9372 23.2466 97.541 22.4442 97.541 20.8394C97.541 19.2313 96.9404 18.4272 95.7393 18.4272C95.137 18.4272 94.6829 18.6307 94.377 19.0376C94.071 19.4412 93.918 20.0418 93.918 20.8394ZM103.63 24.4185L101.911 18.8179H101.867C101.929 19.9572 101.96 20.7173 101.96 21.0981V24.4185H100.607V17.2798H102.668L104.357 22.7388H104.387L106.179 17.2798H108.239V24.4185H106.828V21.0396C106.828 20.88 106.83 20.6961 106.833 20.4878C106.84 20.2795 106.862 19.7261 106.901 18.8276H106.857L105.017 24.4185H103.63ZM114.152 24.4185H110.041V17.2798H114.152V18.52H111.555V20.0874H113.972V21.3276H111.555V23.1685H114.152V24.4185ZM117.16 20.4487H117.648C118.127 20.4487 118.48 20.369 118.708 20.2095C118.936 20.05 119.05 19.7993 119.05 19.4575C119.05 19.119 118.933 18.8781 118.698 18.7349C118.467 18.5916 118.107 18.52 117.619 18.52H117.16V20.4487ZM117.16 21.6792V24.4185H115.646V17.2798H117.727C118.697 17.2798 119.414 17.4572 119.88 17.812C120.345 18.1636 120.578 18.6991 120.578 19.4185C120.578 19.8384 120.463 20.2127 120.231 20.5415C120 20.867 119.673 21.1226 119.25 21.3081C120.324 22.9129 121.024 23.9497 121.35 24.4185H119.67L117.966 21.6792H117.16ZM123.381 22.0503H122.189L121.94 17.2798H123.63L123.381 22.0503ZM121.921 23.7202C121.921 23.4468 121.994 23.2401 122.141 23.1001C122.287 22.9601 122.5 22.8901 122.78 22.8901C123.05 22.8901 123.259 22.9618 123.405 23.105C123.555 23.2482 123.63 23.4533 123.63 23.7202C123.63 23.9774 123.555 24.1808 123.405 24.3306C123.256 24.4771 123.047 24.5503 122.78 24.5503C122.507 24.5503 122.295 24.4787 122.146 24.3354C121.996 24.189 121.921 23.9839 121.921 23.7202Z" fill="#407BFF"/>
    <ellipse opacity="0.8" cx="23.5098" cy="19.9185" rx="9" ry="8.5" fill="#407BFF"/>
    <path opacity="0.8" d="M19.9883 47.4185H15.5464V39.5659H19.9883V40.6509H16.8301V42.7886H19.7896V43.8628H16.8301V46.3281H19.9883V47.4185ZM26.5625 47.4185H25.2949V43.7554C25.2949 43.3006 25.209 42.9622 25.0371 42.7402C24.8652 42.5146 24.5967 42.4019 24.2314 42.4019C23.7445 42.4019 23.3864 42.5612 23.1572 42.8799C22.9316 43.195 22.8188 43.7214 22.8188 44.459V47.4185H21.5566V41.478H22.5449L22.7222 42.2568H22.7866C22.9513 41.974 23.1895 41.7555 23.501 41.6016C23.8161 41.4476 24.1616 41.3706 24.5376 41.3706C25.4507 41.3706 26.0558 41.6821 26.353 42.3052H26.439C26.6144 42.0116 26.8615 41.7824 27.1802 41.6177C27.4989 41.453 27.8641 41.3706 28.2759 41.3706C28.9849 41.3706 29.5005 41.5496 29.8228 41.9077C30.1486 42.2658 30.3115 42.8118 30.3115 43.5459V47.4185H29.0493V43.7554C29.0493 43.3006 28.9616 42.9622 28.7861 42.7402C28.6143 42.5146 28.3457 42.4019 27.9805 42.4019C27.4899 42.4019 27.13 42.5558 26.9009 42.8638C26.6753 43.1681 26.5625 43.6372 26.5625 44.271V47.4185ZM37.0791 47.4185H35.8115V43.7554C35.8115 43.3006 35.7256 42.9622 35.5537 42.7402C35.3818 42.5146 35.1133 42.4019 34.748 42.4019C34.2611 42.4019 33.903 42.5612 33.6738 42.8799C33.4482 43.195 33.3354 43.7214 33.3354 44.459V47.4185H32.0732V41.478H33.0615L33.2388 42.2568H33.3032C33.4679 41.974 33.7061 41.7555 34.0176 41.6016C34.3327 41.4476 34.6782 41.3706 35.0542 41.3706C35.9673 41.3706 36.5724 41.6821 36.8696 42.3052H36.9556C37.131 42.0116 37.3781 41.7824 37.6968 41.6177C38.0155 41.453 38.3807 41.3706 38.7925 41.3706C39.5015 41.3706 40.0171 41.5496 40.3394 41.9077C40.6652 42.2658 40.8281 42.8118 40.8281 43.5459V47.4185H39.5659V43.7554C39.5659 43.3006 39.4782 42.9622 39.3027 42.7402C39.1309 42.5146 38.8623 42.4019 38.4971 42.4019C38.0065 42.4019 37.6466 42.5558 37.4175 42.8638C37.1919 43.1681 37.0791 43.6372 37.0791 44.271V47.4185ZM46.3066 47.4185L46.0542 46.5913H46.0112C45.7248 46.953 45.4365 47.2 45.1465 47.3325C44.8564 47.4614 44.484 47.5259 44.0293 47.5259C43.4456 47.5259 42.9891 47.3683 42.6597 47.0532C42.3338 46.7381 42.1709 46.2923 42.1709 45.7158C42.1709 45.1035 42.3983 44.6416 42.853 44.3301C43.3078 44.0186 44.0007 43.8485 44.9316 43.8198L45.9575 43.7876V43.4707C45.9575 43.0911 45.868 42.8083 45.689 42.6221C45.5135 42.4323 45.2396 42.3374 44.8672 42.3374C44.5628 42.3374 44.271 42.3822 43.9917 42.4717C43.7124 42.5612 43.4438 42.6668 43.186 42.7886L42.7778 41.8862C43.1001 41.7179 43.4528 41.5908 43.8359 41.5049C44.2191 41.4154 44.5807 41.3706 44.9209 41.3706C45.6764 41.3706 46.2458 41.5353 46.6289 41.8647C47.0156 42.1942 47.209 42.7116 47.209 43.417V47.4185H46.3066ZM44.4268 46.5591C44.8851 46.5591 45.2521 46.432 45.5278 46.1777C45.8071 45.9199 45.9468 45.5601 45.9468 45.0981V44.5825L45.1841 44.6147C44.5897 44.6362 44.1564 44.7365 43.8843 44.9155C43.6157 45.091 43.4814 45.3613 43.4814 45.7266C43.4814 45.9915 43.5602 46.1974 43.7178 46.3442C43.8753 46.4875 44.1117 46.5591 44.4268 46.5591ZM50.2812 46.2637C50.1094 46.9297 49.7943 47.7873 49.3359 48.8364H48.4067C48.6538 47.8696 48.8382 46.9709 48.96 46.1401H50.2007L50.2812 46.2637ZM59.3799 41.3706C59.3799 41.8683 59.2349 42.2837 58.9448 42.6167C58.6548 42.9461 58.2466 43.1681 57.7202 43.2827V43.3257C58.3504 43.4045 58.8231 43.6014 59.1382 43.9165C59.4533 44.228 59.6108 44.6434 59.6108 45.1626C59.6108 45.9181 59.3441 46.5018 58.8105 46.9136C58.277 47.3218 57.5179 47.5259 56.5332 47.5259C55.6631 47.5259 54.929 47.3844 54.3311 47.1016V45.979C54.6641 46.1437 55.0168 46.2708 55.3892 46.3604C55.7616 46.4499 56.1196 46.4946 56.4634 46.4946C57.0721 46.4946 57.5269 46.3818 57.8276 46.1562C58.1284 45.9307 58.2788 45.5815 58.2788 45.1089C58.2788 44.6899 58.1123 44.382 57.7793 44.1851C57.4463 43.9881 56.9235 43.8896 56.2109 43.8896H55.5288V42.8638H56.2217C57.4749 42.8638 58.1016 42.4305 58.1016 41.564C58.1016 41.2274 57.9924 40.9678 57.7739 40.7852C57.5555 40.6025 57.2332 40.5112 56.8071 40.5112C56.5099 40.5112 56.2235 40.5542 55.9478 40.6401C55.672 40.7225 55.3462 40.8854 54.9702 41.1289L54.3525 40.248C55.0723 39.7181 55.9084 39.4531 56.8608 39.4531C57.6522 39.4531 58.2699 39.6232 58.7139 39.9634C59.1579 40.3035 59.3799 40.7726 59.3799 41.3706ZM66.2388 45.7051H65.1807V47.4185H63.9507V45.7051H60.3628V44.7329L63.9507 39.5444H65.1807V44.6577H66.2388V45.7051ZM63.9507 44.6577V42.6865C63.9507 41.9847 63.9686 41.41 64.0044 40.9624H63.9614C63.8612 41.1987 63.7036 41.4852 63.4888 41.8218L61.5391 44.6577H63.9507ZM68.6504 46.2637C68.4785 46.9297 68.1634 47.7873 67.7051 48.8364H66.7759C67.0229 47.8696 67.2074 46.9709 67.3291 46.1401H68.5698L68.6504 46.2637ZM76.6157 40.5542C75.8781 40.5542 75.298 40.8156 74.8755 41.3384C74.453 41.8612 74.2417 42.5827 74.2417 43.5029C74.2417 44.4661 74.444 45.1948 74.8486 45.689C75.2568 46.1831 75.8459 46.4302 76.6157 46.4302C76.9487 46.4302 77.271 46.3979 77.5825 46.3335C77.894 46.2655 78.2181 46.1795 78.5547 46.0757V47.1768C77.9388 47.4095 77.2406 47.5259 76.46 47.5259C75.3105 47.5259 74.4279 47.1785 73.812 46.4839C73.1961 45.7856 72.8882 44.7884 72.8882 43.4922C72.8882 42.6758 73.0368 41.9614 73.334 41.3491C73.6348 40.7368 74.068 40.2677 74.6338 39.9419C75.1995 39.616 75.8638 39.4531 76.6265 39.4531C77.4285 39.4531 78.1698 39.6214 78.8501 39.958L78.3882 41.0269C78.1232 40.9015 77.8421 40.7923 77.5449 40.6992C77.2513 40.6025 76.9416 40.5542 76.6157 40.5542ZM83.8291 47.4185L83.5767 46.5913H83.5337C83.2472 46.953 82.959 47.2 82.6689 47.3325C82.3789 47.4614 82.0065 47.5259 81.5518 47.5259C80.9681 47.5259 80.5116 47.3683 80.1821 47.0532C79.8563 46.7381 79.6934 46.2923 79.6934 45.7158C79.6934 45.1035 79.9207 44.6416 80.3755 44.3301C80.8302 44.0186 81.5231 43.8485 82.4541 43.8198L83.48 43.7876V43.4707C83.48 43.0911 83.3905 42.8083 83.2114 42.6221C83.036 42.4323 82.762 42.3374 82.3896 42.3374C82.0853 42.3374 81.7935 42.3822 81.5142 42.4717C81.2349 42.5612 80.9663 42.6668 80.7085 42.7886L80.3003 41.8862C80.6226 41.7179 80.9753 41.5908 81.3584 41.5049C81.7415 41.4154 82.1032 41.3706 82.4434 41.3706C83.1989 41.3706 83.7682 41.5353 84.1514 41.8647C84.5381 42.1942 84.7314 42.7116 84.7314 43.417V47.4185H83.8291ZM81.9492 46.5591C82.4076 46.5591 82.7746 46.432 83.0503 46.1777C83.3296 45.9199 83.4692 45.5601 83.4692 45.0981V44.5825L82.7065 44.6147C82.1121 44.6362 81.6789 44.7365 81.4067 44.9155C81.1382 45.091 81.0039 45.3613 81.0039 45.7266C81.0039 45.9915 81.0827 46.1974 81.2402 46.3442C81.3978 46.4875 81.6341 46.5591 81.9492 46.5591ZM87.7554 47.4185H86.4932V39.061H87.7554V47.4185ZM90.8276 47.4185H89.5654V41.478H90.8276V47.4185ZM89.4902 39.9043C89.4902 39.6787 89.5511 39.505 89.6729 39.3833C89.7982 39.2616 89.9754 39.2007 90.2046 39.2007C90.4266 39.2007 90.5985 39.2616 90.7202 39.3833C90.8455 39.505 90.9082 39.6787 90.9082 39.9043C90.9082 40.1191 90.8455 40.2892 90.7202 40.4146C90.5985 40.5363 90.4266 40.5972 90.2046 40.5972C89.9754 40.5972 89.7982 40.5363 89.6729 40.4146C89.5511 40.2892 89.4902 40.1191 89.4902 39.9043ZM95.6187 42.4341H94.1685V47.4185H92.9009V42.4341H91.9233V41.8433L92.9009 41.4565V41.0698C92.9009 40.368 93.0656 39.8488 93.395 39.5122C93.7244 39.172 94.2275 39.002 94.9043 39.002C95.3483 39.002 95.7852 39.0754 96.2148 39.2222L95.8818 40.1782C95.5703 40.078 95.2731 40.0278 94.9902 40.0278C94.7038 40.0278 94.4943 40.1174 94.3618 40.2964C94.2329 40.4718 94.1685 40.7368 94.1685 41.0913V41.478H95.6187V42.4341ZM101.903 44.4375C101.903 45.4079 101.654 46.1652 101.156 46.7095C100.659 47.2537 99.9657 47.5259 99.0776 47.5259C98.5226 47.5259 98.0321 47.4006 97.606 47.1499C97.1799 46.8993 96.8522 46.5394 96.623 46.0703C96.3939 45.6012 96.2793 45.057 96.2793 44.4375C96.2793 43.4743 96.5264 42.7223 97.0205 42.1816C97.5146 41.641 98.2111 41.3706 99.1099 41.3706C99.9692 41.3706 100.65 41.6481 101.151 42.2031C101.652 42.7546 101.903 43.4993 101.903 44.4375ZM97.5791 44.4375C97.5791 45.8089 98.0858 46.4946 99.0991 46.4946C100.102 46.4946 100.603 45.8089 100.603 44.4375C100.603 43.0804 100.098 42.4019 99.0884 42.4019C98.5584 42.4019 98.1735 42.5773 97.9336 42.9282C97.6973 43.2791 97.5791 43.7822 97.5791 44.4375ZM106.372 41.3706C106.626 41.3706 106.835 41.3885 107 41.4243L106.876 42.6006C106.697 42.5576 106.511 42.5361 106.318 42.5361C105.813 42.5361 105.403 42.7008 105.088 43.0303C104.776 43.3597 104.621 43.7876 104.621 44.314V47.4185H103.358V41.478H104.347L104.513 42.5254H104.578C104.775 42.1709 105.031 41.8898 105.346 41.6821C105.664 41.4744 106.006 41.3706 106.372 41.3706ZM113.333 47.4185H112.065V43.7661C112.065 43.3078 111.972 42.9658 111.786 42.7402C111.603 42.5146 111.311 42.4019 110.91 42.4019C110.377 42.4019 109.986 42.5594 109.739 42.8745C109.492 43.1896 109.369 43.7178 109.369 44.459V47.4185H108.106V41.478H109.095L109.272 42.2568H109.336C109.515 41.974 109.77 41.7555 110.099 41.6016C110.429 41.4476 110.794 41.3706 111.195 41.3706C112.62 41.3706 113.333 42.0957 113.333 43.5459V47.4185ZM116.351 47.4185H115.089V41.478H116.351V47.4185ZM115.014 39.9043C115.014 39.6787 115.075 39.505 115.196 39.3833C115.322 39.2616 115.499 39.2007 115.728 39.2007C115.95 39.2007 116.122 39.2616 116.244 39.3833C116.369 39.505 116.432 39.6787 116.432 39.9043C116.432 40.1191 116.369 40.2892 116.244 40.4146C116.122 40.5363 115.95 40.5972 115.728 40.5972C115.499 40.5972 115.322 40.5363 115.196 40.4146C115.075 40.2892 115.014 40.1191 115.014 39.9043ZM121.878 47.4185L121.625 46.5913H121.583C121.296 46.953 121.008 47.2 120.718 47.3325C120.428 47.4614 120.055 47.5259 119.601 47.5259C119.017 47.5259 118.56 47.3683 118.231 47.0532C117.905 46.7381 117.742 46.2923 117.742 45.7158C117.742 45.1035 117.97 44.6416 118.424 44.3301C118.879 44.0186 119.572 43.8485 120.503 43.8198L121.529 43.7876V43.4707C121.529 43.0911 121.439 42.8083 121.26 42.6221C121.085 42.4323 120.811 42.3374 120.438 42.3374C120.134 42.3374 119.842 42.3822 119.563 42.4717C119.284 42.5612 119.015 42.6668 118.757 42.7886L118.349 41.8862C118.671 41.7179 119.024 41.5908 119.407 41.5049C119.79 41.4154 120.152 41.3706 120.492 41.3706C121.248 41.3706 121.817 41.5353 122.2 41.8647C122.587 42.1942 122.78 42.7116 122.78 43.417V47.4185H121.878ZM119.998 46.5591C120.456 46.5591 120.823 46.432 121.099 46.1777C121.378 45.9199 121.518 45.5601 121.518 45.0981V44.5825L120.755 44.6147C120.161 44.6362 119.728 44.7365 119.456 44.9155C119.187 45.091 119.053 45.3613 119.053 45.7266C119.053 45.9915 119.132 46.1974 119.289 46.3442C119.447 46.4875 119.683 46.5591 119.998 46.5591Z" fill="black"/>
    <rect opacity="0.5" x="141.51" y="8.41846" width="70" height="20" rx="8" fill="#EBF1FF"/>
    <path d="M161.653 17.9329C161.651 18.5208 161.544 19.0137 161.333 19.4117C161.124 19.8074 160.818 20.0967 160.414 20.2797L161.612 21.6276L160.255 21.6224L159.343 20.4978L159.264 20.4975C158.499 20.4945 157.912 20.2701 157.503 19.8242C157.095 19.3783 156.892 18.7395 156.895 17.9078C156.899 17.0761 157.106 16.4423 157.518 16.0063C157.932 15.5682 158.523 15.3505 159.291 15.3535C160.059 15.3564 160.645 15.5797 161.049 16.0233C161.455 16.467 161.656 17.1035 161.653 17.9329ZM158.006 17.9189C158.004 18.4771 158.108 18.898 158.319 19.1813C158.53 19.4647 158.846 19.6072 159.268 19.6088C160.113 19.6121 160.538 19.052 160.542 17.9286C160.547 16.803 160.128 16.2386 159.288 16.2353C158.866 16.2337 158.548 16.3749 158.332 16.6589C158.117 16.9406 158.008 17.3606 158.006 17.9189ZM165.304 20.4523L165.166 19.963L165.111 19.9628C164.999 20.1401 164.84 20.2774 164.634 20.3746C164.429 20.4695 164.195 20.5164 163.933 20.5154C163.484 20.5137 163.146 20.3928 162.92 20.1526C162.693 19.9102 162.58 19.5634 162.582 19.1123L162.591 16.6206L163.634 16.6246L163.625 18.8565C163.624 19.1322 163.672 19.3398 163.77 19.4792C163.867 19.6162 164.023 19.6852 164.237 19.686C164.529 19.6872 164.74 19.5911 164.871 19.3979C165.001 19.2025 165.067 18.8792 165.069 18.428L165.076 16.6302L166.119 16.6342L166.104 20.4554L165.304 20.4523ZM169.624 20.469L169.425 19.9487L169.397 19.9486C169.221 20.1689 169.039 20.322 168.852 20.4079C168.667 20.4915 168.426 20.5327 168.127 20.5316C167.76 20.5302 167.471 20.4242 167.26 20.2138C167.051 20.0033 166.948 19.7044 166.949 19.3171C166.951 18.9115 167.093 18.6135 167.376 18.4232C167.662 18.2306 168.091 18.1252 168.663 18.1069L169.326 18.0889L169.327 17.9214C169.328 17.534 169.131 17.3396 168.734 17.3381C168.429 17.3369 168.07 17.4278 167.656 17.6108L167.314 16.9054C167.755 16.6769 168.243 16.5637 168.778 16.5658C169.291 16.5678 169.683 16.6809 169.956 16.9053C170.229 17.1296 170.364 17.4697 170.362 17.9254L170.352 20.4718L169.624 20.469ZM169.324 18.6973L168.92 18.7094C168.617 18.7174 168.391 18.7712 168.243 18.8709C168.094 18.9706 168.02 19.1229 168.019 19.328C168.018 19.622 168.186 19.7696 168.523 19.7709C168.765 19.7718 168.957 19.703 169.102 19.5646C169.248 19.4262 169.322 19.2419 169.322 19.0117L169.324 18.6973ZM172.472 20.4799L171.429 20.4759L171.45 15.1576L172.492 15.1616L172.472 20.4799ZM173.543 15.6749C173.544 15.3354 173.734 15.1664 174.112 15.1678C174.49 15.1693 174.679 15.3398 174.678 15.6793C174.677 15.8411 174.629 15.9674 174.533 16.0581C174.439 16.1466 174.297 16.1905 174.108 16.1898C173.73 16.1883 173.541 16.0167 173.543 15.6749ZM174.611 20.4881L173.569 20.4841L173.583 16.6629L174.626 16.6669L174.611 20.4881ZM177.321 19.7364C177.503 19.7371 177.722 19.698 177.978 19.6193L177.975 20.3951C177.715 20.5103 177.395 20.5672 177.017 20.5658C176.6 20.5642 176.296 20.4582 176.106 20.2478C175.917 20.0352 175.824 19.7181 175.826 19.2965L175.833 17.4543L175.334 17.4523L175.335 17.0114L175.911 16.665L176.215 15.8595L176.881 15.8621L176.878 16.6756L177.948 16.6797L177.945 17.4624L176.875 17.4583L176.868 19.3005C176.868 19.4486 176.908 19.5582 176.99 19.6291C177.074 19.7001 177.184 19.7358 177.321 19.7364ZM180.345 17.3588C180.124 17.358 179.95 17.4279 179.825 17.5687C179.699 17.7072 179.626 17.9052 179.607 18.1626L181.07 18.1683C181.066 17.9107 181 17.7122 180.87 17.5728C180.741 17.431 180.566 17.3597 180.345 17.3588ZM180.48 20.5791C179.864 20.5767 179.384 20.4051 179.039 20.0643C178.694 19.7234 178.523 19.242 178.525 18.6199C178.528 17.9796 178.689 17.4857 179.009 17.1383C179.332 16.7887 179.776 16.6149 180.341 16.6171C180.881 16.6192 181.301 16.7746 181.6 17.0834C181.9 17.3921 182.049 17.8177 182.047 18.36L182.045 18.8659L179.58 18.8564C179.591 19.1526 179.677 19.3843 179.841 19.5512C180.004 19.7182 180.234 19.8023 180.53 19.8034C180.761 19.8043 180.978 19.7812 181.183 19.7341C181.389 19.6871 181.603 19.6116 181.827 19.5076L181.824 20.3142C181.641 20.4047 181.446 20.4711 181.239 20.5136C181.031 20.5584 180.778 20.5802 180.48 20.5791ZM184.096 20.593C183.647 20.5913 183.294 20.4156 183.038 20.066C182.784 19.7164 182.659 19.2328 182.661 18.6153C182.663 17.9887 182.795 17.5015 183.056 17.1539C183.32 16.804 183.68 16.6299 184.138 16.6317C184.619 16.6336 184.985 16.8218 185.237 17.1965L185.271 17.1966C185.22 16.9116 185.194 16.6574 185.195 16.4341L185.2 15.2105L186.246 15.2145L186.225 20.5328L185.426 20.5298L185.226 20.0334L185.181 20.0332C184.943 20.4083 184.581 20.5949 184.096 20.593ZM184.465 19.7638C184.731 19.7649 184.926 19.6881 185.05 19.5337C185.176 19.3792 185.245 19.1163 185.258 18.7449L185.259 18.6321C185.26 18.222 185.197 17.9278 185.071 17.7496C184.946 17.5713 184.741 17.4817 184.456 17.4806C184.224 17.4797 184.042 17.5781 183.912 17.7759C183.783 17.9713 183.718 18.2571 183.717 18.633C183.716 19.009 183.779 19.2918 183.909 19.4814C184.038 19.6688 184.223 19.7629 184.465 19.7638ZM191.355 16.3655C190.956 16.364 190.647 16.5132 190.427 16.8131C190.207 17.1108 190.096 17.5273 190.094 18.0628C190.089 19.1771 190.505 19.7358 191.342 19.739C191.693 19.7404 192.118 19.6543 192.618 19.4808L192.614 20.3694C192.203 20.5387 191.745 20.6224 191.239 20.6205C190.512 20.6177 189.957 20.3957 189.574 19.9544C189.19 19.5109 189 18.8767 189.003 18.0518C189.005 17.5323 189.102 17.078 189.292 16.6891C189.483 16.2979 189.755 15.9993 190.109 15.7933C190.466 15.5851 190.882 15.4819 191.358 15.4837C191.843 15.4856 192.331 15.6048 192.82 15.8414L192.475 16.7014C192.288 16.6118 192.1 16.5336 191.911 16.4668C191.723 16.4 191.537 16.3662 191.355 16.3655ZM196.025 20.5705L195.825 20.0502L195.798 20.0501C195.621 20.2705 195.44 20.4236 195.252 20.5094C195.067 20.593 194.826 20.6343 194.527 20.6331C194.16 20.6317 193.871 20.5258 193.66 20.3153C193.451 20.1049 193.348 19.806 193.349 19.4186C193.351 19.013 193.493 18.7151 193.777 18.5248C194.062 18.3322 194.491 18.2267 195.063 18.2084L195.726 18.1905L195.727 18.023C195.728 17.6356 195.531 17.4412 195.134 17.4396C194.829 17.4385 194.47 17.5294 194.057 17.7123L193.714 17.0069C194.155 16.7785 194.643 16.6653 195.178 16.6673C195.691 16.6693 196.084 16.7825 196.356 17.0068C196.629 17.2312 196.764 17.5712 196.762 18.027L196.753 20.5733L196.025 20.5705ZM195.724 18.7988L195.32 18.811C195.017 18.8189 194.792 18.8727 194.643 18.9724C194.495 19.0721 194.42 19.2245 194.419 19.4296C194.418 19.7235 194.586 19.8711 194.923 19.8724C195.165 19.8734 195.358 19.8046 195.502 19.6662C195.648 19.5277 195.722 19.3434 195.723 19.1133L195.724 18.7988ZM198.872 20.5815L197.829 20.5775L197.85 15.2591L198.892 15.2632L198.872 20.5815ZM201.011 20.5897L199.969 20.5857L199.989 15.2674L201.032 15.2714L201.011 20.5897Z" fill="black"/>
</svg>
